<?xml version="1.0" encoding="UTF-8" standalone="no"?>
<!-- Created with Inkscape (http://www.inkscape.org/) -->

<svg
   width="31.455957mm"
   height="12.53154mm"
   viewBox="0 0 31.455958 12.53154"
   version="1.1"
   id="svg1"
   xmlns="http://www.w3.org/2000/svg"
   xmlns:svg="http://www.w3.org/2000/svg">
  <defs
     id="defs1" />
  <g
     id="layer1"
     transform="translate(-89.442603,-159.37942)">
    <path
       id="path2"
       style="fill:#a1a1aa;fill-opacity:1;stroke:none;stroke-width:0.2;stroke-dasharray:none"
       d="m 101.71266,159.37942 v 12.53153 h 1.75699 v -5.29683 h 2.61586 l 2.67219,5.29683 h 2.08463 l -2.88613,-5.4777 c 0.22249,-0.0692 0.43276,-0.15809 0.62994,-0.26717 0.54547,-0.30432 0.97002,-0.72633 1.27434,-1.26607 0.30432,-0.54547 0.4563,-1.17977 0.4563,-1.90324 0,-0.72921 -0.15198,-1.36352 -0.4563,-1.90325 -0.29856,-0.53973 -0.7206,-0.95923 -1.26607,-1.2578 -0.54549,-0.30432 -1.18282,-0.4563 -1.91203,-0.4563 z m 1.75699,1.6707 h 3.28197 c 0.51103,0 0.92138,0.17781 1.23145,0.53381 0.31006,0.35599 0.46509,0.82717 0.46509,1.41284 0,0.58567 -0.15503,1.05632 -0.46509,1.41231 -0.31007,0.356 -0.72042,0.53382 -1.23145,0.53382 h -3.28197 z" />
    <path
       style="fill:#a1a1aa;fill-opacity:1;stroke:none;stroke-width:0.2;stroke-dasharray:none"
       d="m 95.134762,164.93775 -1.372526,3.02203 1.531689,5.2e-4 v 1.7663 l 1.029912,-2.45928 h -1.60352 z"
       id="path5" />
    <path
       style="fill:#a1a1aa;fill-opacity:1;stroke:none;stroke-width:0.2;stroke-dasharray:none"
       d="m 116.66781,159.37943 c -0.85569,0 -1.60407,0.19131 -2.24585,0.57413 -0.64178,0.37718 -1.14034,0.90947 -1.495,1.59628 -0.35467,0.68681 -0.53175,1.49159 -0.53175,2.41484 v 3.3693 c 0,0.91763 0.17708,1.71976 0.53175,2.40657 0.35466,0.68682 0.85322,1.22174 1.495,1.60456 0.64178,0.37718 1.39016,0.56585 2.24585,0.56585 0.70934,0 1.35704,-0.15178 1.94252,-0.45578 0.58548,-0.30399 1.07773,-0.7293 1.47743,-1.27538 0.39971,-0.54608 0.67006,-1.18483 0.8108,-1.91667 h -1.76475 c -0.16325,0.63614 -0.48157,1.12311 -0.95446,1.46089 -0.47289,0.33777 -0.97672,0.50643 -1.51154,0.50643 -0.75436,0 -1.36202,-0.26457 -1.82366,-0.79375 -0.45599,-0.52919 -0.68419,-1.23012 -0.68419,-2.10272 v -3.3693 c 0,-0.87259 0.2282,-1.57353 0.68419,-2.10271 0.46164,-0.53482 1.0693,-0.80202 1.82366,-0.80202 0.3603,0 0.70971,0.0817 1.04749,0.24494 0.33777,0.16326 0.63027,0.3941 0.87798,0.69247 0.25333,0.29274 0.43357,0.63584 0.54053,1.02991 h 1.76475 c -0.14074,-0.73185 -0.41109,-1.37061 -0.8108,-1.91668 -0.39407,-0.54607 -0.88632,-0.97137 -1.47743,-1.27537 -0.58548,-0.304 -1.23318,-0.45579 -1.94252,-0.45579 z"
       id="path3" />
    <path
       style="fill:#fb923c;fill-opacity:1;stroke:none;stroke-width:0.2;stroke-dasharray:none"
       d="m 95.134762,159.37943 -5.692159,12.53153 h 1.712557 l 3.979602,-8.76018 3.248381,7.15253 h -5.685442 l -0.730704,1.60765 h 8.859403 z"
       id="path1" />
  </g>
</svg>
