<?xml version="1.0" encoding="UTF-8" standalone="no"?>
<!-- Created with Inkscape (http://www.inkscape.org/) -->

<svg
   width="31.455957mm"
   height="12.53154mm"
   viewBox="0 0 31.455958 12.53154"
   version="1.1"
   id="svg1"
   inkscape:version="1.3 (0e150ed6c4, 2023-07-21)"
   sodipodi:docname="arc.svg"
   xmlns:inkscape="http://www.inkscape.org/namespaces/inkscape"
   xmlns:sodipodi="http://sodipodi.sourceforge.net/DTD/sodipodi-0.dtd"
   xmlns:xlink="http://www.w3.org/1999/xlink"
   xmlns="http://www.w3.org/2000/svg"
   xmlns:svg="http://www.w3.org/2000/svg">
  <sodipodi:namedview
     id="namedview1"
     pagecolor="#ffffff"
     bordercolor="#666666"
     borderopacity="1.0"
     inkscape:showpageshadow="2"
     inkscape:pageopacity="0.0"
     inkscape:pagecheckerboard="true"
     inkscape:deskcolor="#d1d1d1"
     inkscape:document-units="mm"
     showguides="true"
     inkscape:zoom="5.6568542"
     inkscape:cx="81.847611"
     inkscape:cy="19.357048"
     inkscape:current-layer="layer1">
    <sodipodi:guide
       position="5.6918028,339.33334"
       orientation="0,-1"
       id="guide21"
       inkscape:locked="false" />
    <sodipodi:guide
       position="-0.00019023469,326.8018"
       orientation="0,-1"
       id="guide22"
       inkscape:locked="false" />
    <sodipodi:guide
       position="5.6924138,339.33334"
       orientation="1,0"
       id="guide23"
       inkscape:locked="false" />
    <sodipodi:guide
       position="5.8512288,328.98639"
       orientation="1,0"
       id="guide24"
       inkscape:locked="false" />
    <sodipodi:guide
       position="5.2776668,331.44541"
       orientation="0,-1"
       id="guide25"
       inkscape:locked="false" />
    <sodipodi:guide
       position="4.3194038,330.75264"
       orientation="0,-1"
       id="guide26"
       inkscape:locked="false" />
    <sodipodi:guide
       position="4.3194058,330.75274"
       orientation="-0.91046341,0.41358963"
       id="guide28"
       inkscape:locked="false" />
  </sodipodi:namedview>
  <defs
     id="defs1">
    <linearGradient
       id="linearGradient40"
       inkscape:collect="always">
      <stop
         style="stop-color:#2cafe8;stop-opacity:1;"
         offset="0"
         id="stop41" />
      <stop
         style="stop-color:#6f2cb5;stop-opacity:1;"
         offset="1"
         id="stop42" />
    </linearGradient>
    <rect
       x="392.79782"
       y="269.58447"
       width="123.74369"
       height="147.78532"
       id="rect5" />
    <rect
       x="239.66032"
       y="311.65314"
       width="370.38412"
       height="199.87482"
       id="rect1" />
    <rect
       x="392.79782"
       y="269.58447"
       width="123.74369"
       height="147.78532"
       id="rect6" />
    <rect
       x="392.79782"
       y="269.58447"
       width="123.74369"
       height="147.78532"
       id="rect10" />
    <rect
       x="392.79782"
       y="269.58447"
       width="123.74369"
       height="147.78532"
       id="rect14" />
    <rect
       x="392.79782"
       y="269.58447"
       width="123.74369"
       height="147.78532"
       id="rect15" />
    <rect
       x="392.79782"
       y="269.58447"
       width="123.74369"
       height="147.78532"
       id="rect18" />
    <rect
       x="392.79782"
       y="269.58447"
       width="123.74369"
       height="147.78532"
       id="rect19" />
    <linearGradient
       inkscape:collect="always"
       xlink:href="#linearGradient40"
       id="linearGradient42"
       x1="94.134613"
       y1="140.41463"
       x2="120.08776"
       y2="149.01312"
       gradientUnits="userSpaceOnUse" />
  </defs>
  <g
     inkscape:label="Calque 1"
     inkscape:groupmode="layer"
     id="layer1"
     transform="translate(-89.442603,-159.37942)">
    <path
       id="path2"
       style="fill:#a1a1aa;fill-opacity:1;stroke:none;stroke-width:0.2;stroke-dasharray:none"
       d="m 101.71266,159.37942 v 12.53153 h 1.75699 v -5.29683 h 2.61586 l 2.67219,5.29683 h 2.08463 l -2.88613,-5.4777 c 0.22249,-0.0692 0.43276,-0.15809 0.62994,-0.26717 0.54547,-0.30432 0.97002,-0.72633 1.27434,-1.26607 0.30432,-0.54547 0.4563,-1.17977 0.4563,-1.90324 0,-0.72921 -0.15198,-1.36352 -0.4563,-1.90325 -0.29856,-0.53973 -0.7206,-0.95923 -1.26607,-1.2578 -0.54549,-0.30432 -1.18282,-0.4563 -1.91203,-0.4563 z m 1.75699,1.6707 h 3.28197 c 0.51103,0 0.92138,0.17781 1.23145,0.53381 0.31006,0.35599 0.46509,0.82717 0.46509,1.41284 0,0.58567 -0.15503,1.05632 -0.46509,1.41231 -0.31007,0.356 -0.72042,0.53382 -1.23145,0.53382 h -3.28197 z" />
    <path
       style="fill:#000000;stroke:none;stroke-width:0.2;stroke-dasharray:none"
       d="m 89.442416,129.57762 11.383984,-3e-5 -5.691381,-12.5315 z"
       id="path22" />
    <path
       style="fill:#ffffff;stroke:none;stroke-width:0.114156;stroke-dasharray:none"
       d="m 91.885541,127.96995 6.497734,-1e-5 -3.248518,-7.15272 z"
       id="path23" />
    <path
       style="fill:#000000;stroke:none;stroke-width:0.165419;stroke-dasharray:none"
       d="m 95.135017,122.60418 -0.414745,2.32983 h 1.603606 l -1.030044,2.45902 -2e-6,-1.76625 -1.531823,-1e-4 z"
       id="path18"
       sodipodi:nodetypes="ccccccc" />
    <path
       style="font-size:46.6667px;line-height:1.25;font-family:Bahnschrift;-inkscape-font-specification:Bahnschrift;text-align:center;text-anchor:middle;white-space:pre"
       d="m 469.93588,312.80993 q -3.46354,0 -6.0612,-1.5267 -2.59766,-1.54948 -4.0332,-4.32943 -1.43555,-2.77995 -1.43555,-6.49414 v -9.09181 q 0,-3.73698 1.43555,-6.51693 1.43554,-2.77995 4.0332,-4.30664 2.59766,-1.54948 6.0612,-1.54948 2.8711,0 5.24089,1.23047 2.39258,1.23047 3.98763,3.44076 1.61784,2.21028 2.18751,5.17252 v 0 h -4.76238 v 0 q -0.43294,-1.59505 -1.45833,-2.77995 -1.00261,-1.20768 -2.36979,-1.86849 -1.36719,-0.6608 -2.82553,-0.6608 -3.05338,0 -4.92188,2.16471 -1.8457,2.14193 -1.8457,5.67383 v 9.09181 q 0,3.5319 1.8457,5.67383 1.8685,2.14193 4.92188,2.14193 2.16472,0 4.07878,-1.36719 1.91407,-1.36719 2.57487,-3.94206 v 0 h 4.76238 v 0 q -0.56967,2.96224 -2.18751,5.17253 -1.61783,2.21029 -3.98763,3.44076 -2.36979,1.23047 -5.24089,1.23047 z"
       transform="matrix(0.37058947,0,0,0.37058947,-57.485308,13.653551)"
       id="path21" />
    <path
       id="path20"
       style="font-size:46.6667px;line-height:1.25;font-family:Bahnschrift;-inkscape-font-specification:Bahnschrift;text-align:center;text-anchor:middle;white-space:pre;stroke:none;stroke-width:0.377977"
       d="m 101.71265,117.04609 v 12.53153 h 1.75725 v -5.29702 h 2.61583 l 2.67222,5.29702 h 2.08455 l -2.88622,-5.4778 c 0.22249,-0.0692 0.43267,-0.15814 0.62985,-0.26722 0.54547,-0.30432 0.97012,-0.72628 1.27444,-1.26602 0.30432,-0.54547 0.45644,-1.17976 0.45644,-1.90323 0,-0.72921 -0.15212,-1.36351 -0.45644,-1.90324 -0.29856,-0.53973 -0.72053,-0.95901 -1.266,-1.25758 -0.54549,-0.30432 -1.18299,-0.45644 -1.9122,-0.45644 h -3.21247 -0.99036 z m 1.75725,1.6708 h 3.28151 c 0.51103,0 0.92169,0.17792 1.23176,0.53392 0.31006,0.35599 0.46487,0.82687 0.46487,1.41254 0,0.58567 -0.15481,1.05654 -0.46487,1.41253 -0.31007,0.356 -0.72073,0.53393 -1.23176,0.53393 h -3.28151 z" />
    <path
       style="fill:#ffffff;stroke:none;stroke-width:0.2;stroke-dasharray:none"
       d="m 91.885539,127.96995 h 0.81201 l -0.730302,1.60766 h -0.812125 z"
       id="path28"
       sodipodi:nodetypes="ccccc" />
    <path
       id="path29"
       style="fill:url(#linearGradient42);fill-opacity:1;stroke:none;stroke-width:0.2;stroke-dasharray:none"
       d="m 95.134762,138.21275 -5.692159,12.53153 h 1.712557 l 3.979602,-8.76018 3.248381,7.15253 h -5.685442 l -0.730704,1.60765 h 8.859403 z m 6.577898,0 v 12.53153 h 1.75699 v -5.29683 h 2.61586 l 2.67219,5.29683 h 2.08463 l -2.88613,-5.4777 c 0.22249,-0.0692 0.43276,-0.15808 0.62994,-0.26716 0.54547,-0.30432 0.97002,-0.72634 1.27434,-1.26608 0.30432,-0.54547 0.4563,-1.17977 0.4563,-1.90324 0,-0.72921 -0.15198,-1.36351 -0.4563,-1.90324 -0.29856,-0.53973 -0.7206,-0.95924 -1.26607,-1.25781 -0.54549,-0.30432 -1.18282,-0.4563 -1.91203,-0.4563 z m 14.95515,0 c -0.85569,0 -1.60407,0.19131 -2.24585,0.57413 -0.64178,0.37718 -1.14034,0.90947 -1.495,1.59628 -0.35467,0.68681 -0.53175,1.49159 -0.53175,2.41484 v 3.3693 c 0,0.91763 0.17708,1.71976 0.53175,2.40657 0.35466,0.68682 0.85322,1.22174 1.495,1.60456 0.64178,0.37718 1.39016,0.56585 2.24585,0.56585 0.70934,0 1.35704,-0.15178 1.94252,-0.45578 0.58548,-0.30399 1.07773,-0.7293 1.47743,-1.27538 0.39971,-0.54608 0.67006,-1.18483 0.8108,-1.91667 h -1.76475 c -0.16325,0.63614 -0.48157,1.12311 -0.95446,1.46089 -0.47289,0.33777 -0.97672,0.50643 -1.51154,0.50643 -0.75436,0 -1.36202,-0.26457 -1.82366,-0.79375 -0.45599,-0.52919 -0.68419,-1.23012 -0.68419,-2.10272 v -3.3693 c 0,-0.87259 0.2282,-1.57353 0.68419,-2.10271 0.46164,-0.53482 1.0693,-0.80202 1.82366,-0.80202 0.3603,0 0.70971,0.0817 1.04749,0.24494 0.33777,0.16326 0.63027,0.3941 0.87798,0.69247 0.25333,0.29274 0.43357,0.63584 0.54053,1.02991 h 1.76475 c -0.14074,-0.73185 -0.41109,-1.37061 -0.8108,-1.91668 -0.39407,-0.54607 -0.88632,-0.97137 -1.47743,-1.27537 -0.58548,-0.304 -1.23318,-0.45579 -1.94252,-0.45579 z m -13.19816,1.6707 h 3.28197 c 0.51103,0 0.92138,0.17782 1.23145,0.53382 0.31006,0.35599 0.46509,0.82716 0.46509,1.41283 0,0.58567 -0.15503,1.05633 -0.46509,1.41232 -0.31007,0.356 -0.72042,0.53381 -1.23145,0.53381 h -3.28197 z m -8.334888,3.88762 -1.372526,3.02203 1.531689,5.2e-4 v 1.7663 l 1.029912,-2.45928 h -1.60352 z" />
    <path
       style="fill:#a1a1aa;fill-opacity:1;stroke:none;stroke-width:0.2;stroke-dasharray:none"
       d="m 95.134762,164.93775 -1.372526,3.02203 1.531689,5.2e-4 v 1.7663 l 1.029912,-2.45928 h -1.60352 z"
       id="path5" />
    <path
       style="fill:#a1a1aa;fill-opacity:1;stroke:none;stroke-width:0.2;stroke-dasharray:none"
       d="m 116.66781,159.37943 c -0.85569,0 -1.60407,0.19131 -2.24585,0.57413 -0.64178,0.37718 -1.14034,0.90947 -1.495,1.59628 -0.35467,0.68681 -0.53175,1.49159 -0.53175,2.41484 v 3.3693 c 0,0.91763 0.17708,1.71976 0.53175,2.40657 0.35466,0.68682 0.85322,1.22174 1.495,1.60456 0.64178,0.37718 1.39016,0.56585 2.24585,0.56585 0.70934,0 1.35704,-0.15178 1.94252,-0.45578 0.58548,-0.30399 1.07773,-0.7293 1.47743,-1.27538 0.39971,-0.54608 0.67006,-1.18483 0.8108,-1.91667 h -1.76475 c -0.16325,0.63614 -0.48157,1.12311 -0.95446,1.46089 -0.47289,0.33777 -0.97672,0.50643 -1.51154,0.50643 -0.75436,0 -1.36202,-0.26457 -1.82366,-0.79375 -0.45599,-0.52919 -0.68419,-1.23012 -0.68419,-2.10272 v -3.3693 c 0,-0.87259 0.2282,-1.57353 0.68419,-2.10271 0.46164,-0.53482 1.0693,-0.80202 1.82366,-0.80202 0.3603,0 0.70971,0.0817 1.04749,0.24494 0.33777,0.16326 0.63027,0.3941 0.87798,0.69247 0.25333,0.29274 0.43357,0.63584 0.54053,1.02991 h 1.76475 c -0.14074,-0.73185 -0.41109,-1.37061 -0.8108,-1.91668 -0.39407,-0.54607 -0.88632,-0.97137 -1.47743,-1.27537 -0.58548,-0.304 -1.23318,-0.45579 -1.94252,-0.45579 z"
       id="path3" />
    <path
       style="fill:#fb923c;fill-opacity:1;stroke:none;stroke-width:0.2;stroke-dasharray:none"
       d="m 95.134762,159.37943 -5.692159,12.53153 h 1.712557 l 3.979602,-8.76018 3.248381,7.15253 h -5.685442 l -0.730704,1.60765 h 8.859403 z"
       id="path1" />
  </g>
</svg>
